<?xml version="1.0" encoding="iso-8859-1"?>
<!-- Generator: Adobe Illustrator 19.0.0, SVG Export Plug-In . SVG Version: 6.00 Build 0)  -->
<svg version="1.1" id="Capa_1" xmlns="http://www.w3.org/2000/svg" xmlns:xlink="http://www.w3.org/1999/xlink" x="0px" y="0px"
	 viewBox="0 0 468 468" style="enable-background:new 0 0 468 468;" xml:space="preserve">
<g>
	<g>
		<path style="fill:#D4E1F4;" d="M457.84,311.611v61.76c0.004,17.493-14.173,31.676-31.666,31.68c-0.001,0-0.003,0-0.004,0h-26.4
			c-17.496-0.001-31.679-14.184-31.68-31.68v-30.09h58.08C443.661,343.28,457.839,329.102,457.84,311.611z"/>
		<path style="fill:#00EFD1;" d="M457.84,303.691v7.92c-0.001,17.491-14.179,31.669-31.67,31.67H41.83
			c-17.491-0.001-31.669-14.179-31.67-31.67v-78.84c0-13.953,6.132-27.201,16.77-36.23l16.49-15.33h387.5v0.53l12.03,12.86
			c9.507,8.972,14.893,21.468,14.89,34.54L457.84,303.691z M411.38,293.131v-51.74h-75.49v51.74H411.38z M132.11,293.131v-51.74
			H56.62v51.74H132.11z"/>
		<g>
			<path style="fill:#D4E1F4;" d="M394.76,83.621l36.16,97.59h-46.99c0-32.364-26.236-58.6-58.6-58.6s-58.6,26.236-58.6,58.6H43.42
				l36.16-97.59c4.603-12.423,16.451-20.67,29.7-20.67h255.78C378.308,62.954,390.155,71.199,394.76,83.621z"/>
			<rect x="335.89" y="241.39" style="fill:#D4E1F4;" width="75.49" height="51.74"/>
			<path style="fill:#D4E1F4;" d="M383.93,181.211h-117.2c0.016-32.364,26.264-58.587,58.628-58.572
				C357.7,122.655,383.914,148.869,383.93,181.211z"/>
			<rect x="56.62" y="241.39" style="fill:#D4E1F4;" width="75.49" height="51.74"/>
			<path style="fill:#D4E1F4;" d="M99.91,343.811v29.56c-0.001,17.496-14.184,31.679-31.68,31.68h-26.4
				c-17.493-0.002-31.672-14.183-31.67-31.676c0-0.001,0-0.003,0-0.004v-61.76c0.001,17.491,14.179,31.669,31.67,31.67h58.08
				V343.811z"/>
		</g>
	</g>
	<g>
		<path style="fill:#083863;" d="M132.11,303.131H56.62c-5.523,0-10-4.477-10-10v-51.74c0-5.523,4.477-10,10-10h75.49
			c5.523,0,10,4.477,10,10v51.74C142.11,298.654,137.633,303.131,132.11,303.131z M66.62,283.131h55.49v-31.74H66.62V283.131z"/>
		<path style="fill:#083863;" d="M411.38,303.131h-75.49c-5.523,0-10-4.477-10-10v-51.74c0-5.523,4.477-10,10-10h75.49
			c5.523,0,10,4.477,10,10v51.74C421.38,298.654,416.903,303.131,411.38,303.131z M345.89,283.131h55.49v-31.74h-55.49V283.131z"/>
		<path style="fill:#083863;" d="M450.13,187.552l-10.167-10.825l-35.808-96.561C398.042,63.86,382.474,53.042,365.06,53H109.28
			C91.867,53.036,76.298,63.86,70.2,80.171l-35.331,95.347L20.2,189.076C7.399,199.984,0.017,215.952,0,232.771v140.6
			C0.103,396.398,18.803,415.008,41.83,415h26.4c23.016,0.005,41.697-18.613,41.77-41.629V353h248v20.371
			c0.073,23.016,18.754,41.634,41.77,41.629h26.4c23.027,0.008,41.727-18.602,41.83-41.629v-144.23
			C467.947,213.425,461.494,198.408,450.13,187.552z M88.958,87.013C92.142,78.557,100.245,72.97,109.28,73h255.78
			c9.035-0.025,17.135,5.561,20.323,14.015L416.55,171h-23.357c-5.539-37.48-40.412-63.373-77.892-57.834
			c-29.919,4.421-53.413,27.915-57.834,57.834H57.79L88.958,87.013z M372.891,171H277.77c5.522-26.267,31.292-43.084,57.558-37.563
			C354.19,137.402,368.926,152.139,372.891,171z M90,373.371c-0.06,11.975-9.794,21.647-21.77,21.629h-26.4
			c-11.986,0.02-21.739-9.643-21.83-21.629v-26.182C26,351.051,33.9,353,41.83,353H90V373.371z M426.17,395h-26.4
			c-11.976,0.018-21.71-9.654-21.77-21.629V353h48.17c7.932,0,15.83-1.949,21.83-5.811v26.182
			C447.909,385.357,438.156,395.02,426.17,395z M426.17,333H41.83c-11.925,0.131-21.699-9.43-21.83-21.356c0-0.011,0-0.022,0-0.033
			v-78.84c0.021-11.029,4.893-21.491,13.321-28.606c0.115-0.1,0.267-0.3,0.378-0.405L47.351,191h378.734l9.562,10.327
			c0.143,0.152,0.37,0.352,0.521,0.5c7.512,7.104,11.788,16.975,11.832,27.314v82.47c-0.113,11.926-9.871,21.502-21.797,21.389
			C426.192,333,426.181,333,426.17,333z"/>
		<path style="fill:#083863;" d="M282.31,292.571h-96.62c-5.523,0-10-4.477-10-10s4.477-10,10-10h96.62c5.523,0,10,4.477,10,10
			S287.833,292.571,282.31,292.571z"/>
		<path style="fill:#083863;" d="M282.31,261.951h-96.62c-5.523,0-10-4.477-10-10s4.477-10,10-10h96.62c5.523,0,10,4.477,10,10
			S287.833,261.951,282.31,261.951z"/>
	</g>
</g>
<g>
</g>
<g>
</g>
<g>
</g>
<g>
</g>
<g>
</g>
<g>
</g>
<g>
</g>
<g>
</g>
<g>
</g>
<g>
</g>
<g>
</g>
<g>
</g>
<g>
</g>
<g>
</g>
<g>
</g>
</svg>
